<svg width="23" height="22" viewBox="0 0 23 22" fill="none" xmlns="http://www.w3.org/2000/svg">
<path d="M8.1246 6.84114L1.7446 7.76614L1.6316 7.78914C1.46054 7.83455 1.3046 7.92455 1.17969 8.04994C1.05479 8.17534 0.965405 8.33163 0.920664 8.50287C0.875923 8.67411 0.877429 8.85415 0.925029 9.02462C0.97263 9.19508 1.06462 9.34986 1.1916 9.47314L5.8136 13.9721L4.7236 20.3271L4.7106 20.4371C4.70013 20.6141 4.73687 20.7906 4.81705 20.9486C4.89724 21.1067 5.01799 21.2406 5.16694 21.3367C5.31589 21.4327 5.48769 21.4874 5.66475 21.4953C5.84181 21.5031 6.01777 21.4637 6.1746 21.3811L11.8806 18.3811L17.5736 21.3811L17.6736 21.4271C17.8387 21.4922 18.018 21.5121 18.1934 21.4849C18.3687 21.4577 18.5336 21.3844 18.6712 21.2724C18.8088 21.1604 18.9142 21.0139 18.9764 20.8478C19.0387 20.6817 19.0557 20.502 19.0256 20.3271L17.9346 13.9721L22.5586 9.47214L22.6366 9.38714C22.748 9.24991 22.8211 9.0856 22.8483 8.91094C22.8756 8.73628 22.856 8.55752 22.7917 8.39287C22.7274 8.22823 22.6205 8.08358 22.4821 7.97366C22.3436 7.86374 22.1785 7.79248 22.0036 7.76714L15.6236 6.84114L12.7716 1.06114C12.6891 0.893678 12.5613 0.752658 12.4028 0.654048C12.2443 0.555437 12.0613 0.503174 11.8746 0.503174C11.6879 0.503174 11.5049 0.555437 11.3464 0.654048C11.1879 0.752658 11.0601 0.893678 10.9776 1.06114L8.1246 6.84114Z" fill="#FC950F"/>
</svg>
